<svg xmlns="http://www.w3.org/2000/svg" width="163.719" height="163.719"><path d="M143.152 156.954V102.29h10.283V84.538l-13.8-27.494V41.133H126.1V34.1h13.53V0H23.814v34.1h13.53v7.036h-13.53v16.152l-13.53 27.25v17.752H20.3v54.663H0v6.765h163.719v-6.765zm0-61.428h-10.229V88.76h13.747v6.765zM19.132 81.941l10.2-20.512h104.89l10.338 20.512zm18.212 6.819H54.5v6.765H37.344zm23.976 0h17.049v6.765H61.32zm23.868 0h17.048v6.765H85.188zm6.819 13.53h27.332v34.1H92.007zm17.048-6.765V88.76H126.1v6.765zM30.579 7.036h102.29v20.3H30.579zM44.38 34.1h74.959v7.036H44.38zm-13.8 13.8h102.29v6.765H30.579zM17.048 95.525V88.76h13.53v6.765h-13.53zm10.283 61.428V102.29h10.013v54.663zm17.048 0V102.29h27.062v54.663zm34.1 0V102.29h6.765v41.133H126.1V102.29h10.283v54.663z" fill="#c0a000"/></svg>